<?xml version="1.0" standalone="no"?>
<!DOCTYPE svg PUBLIC "-//W3C//DTD SVG 20010904//EN"
 "http://www.w3.org/TR/2001/REC-SVG-20010904/DTD/svg10.dtd">
<svg version="1.0" xmlns="http://www.w3.org/2000/svg"
 width="286.000000pt" height="286.000000pt" viewBox="0 0 286.000000 286.000000"
 preserveAspectRatio="xMidYMid meet">
<metadata>
Created by potrace 1.14, written by Peter Selinger 2001-2017
</metadata>
<g transform="translate(0.000000,286.000000) scale(0.100000,-0.100000)"
fill="#000000" stroke="none">
<path d="M1978 2705 c-3 -3 -18 -8 -33 -11 -15 -3 -42 -12 -59 -22 -17 -9 -34
-16 -37 -17 -12 0 -99 -59 -99 -67 0 -4 -5 -8 -11 -8 -6 0 -34 -20 -62 -44
-51 -43 -53 -44 -102 -36 -56 9 -235 6 -308 -5 -27 -4 -87 -18 -135 -31 -107
-31 -127 -32 -143 -11 -11 14 -123 48 -172 52 -53 3 -107 -10 -107 -28 0 -6
-3 -7 -7 -4 -3 4 -17 -5 -30 -19 -26 -28 -57 -84 -47 -84 4 0 2 -6 -4 -12 -6
-7 -14 -31 -18 -53 -5 -22 -9 -43 -10 -47 -1 -5 -2 -30 -3 -57 -1 -42 -6 -54
-41 -92 -45 -49 -157 -208 -162 -230 -2 -8 -5 -16 -8 -19 -13 -12 -70 -151
-89 -215 -61 -211 -62 -463 -2 -665 27 -89 44 -134 56 -142 6 -4 7 -8 2 -8
-18 0 116 -230 134 -230 6 0 8 -4 4 -9 -3 -5 7 -19 21 -30 15 -12 23 -21 20
-21 -4 0 25 -34 66 -75 40 -41 76 -75 80 -75 4 0 19 -11 33 -25 21 -22 25 -35
25 -84 0 -43 4 -60 15 -65 9 -3 15 -18 15 -36 l0 -30 699 0 699 1 1 97 1 97
37 30 c50 40 172 160 153 150 -8 -4 1 6 20 23 19 17 32 31 28 32 -4 0 6 14 22
32 16 17 27 35 25 39 -3 4 2 10 11 13 8 3 12 10 9 16 -3 5 -2 10 3 10 4 0 27
38 50 83 147 298 166 631 56 940 -28 75 -113 246 -134 267 -38 38 -58 82 -64
141 -26 288 -123 517 -241 570 -37 17 -144 26 -157 14z"/>
</g>
</svg>
